<?xml version="1.0" encoding="utf-8"?>
<svg xmlns="http://www.w3.org/2000/svg" xmlns:xlink="http://www.w3.org/1999/xlink" width="600" height="400" viewBox="0 0 2400 1600">
<defs>
  <clipPath id="clip020">
    <rect x="0" y="0" width="2400" height="1600"/>
  </clipPath>
</defs>
<path clip-path="url(#clip020)" d="
M0 1600 L2400 1600 L2400 0 L0 0  Z
  " fill="#ffffff" fill-rule="evenodd" fill-opacity="1"/>
<defs>
  <clipPath id="clip021">
    <rect x="480" y="0" width="1681" height="1600"/>
  </clipPath>
</defs>
<path clip-path="url(#clip020)" d="
M102.74 1505.26 L2352.76 1505.26 L2352.76 47.2441 L102.74 47.2441  Z
  " fill="#ffffff" fill-rule="evenodd" fill-opacity="1"/>
<defs>
  <clipPath id="clip022">
    <rect x="102" y="47" width="2251" height="1459"/>
  </clipPath>
</defs>
<polyline clip-path="url(#clip022)" style="stroke:#000000; stroke-width:2; stroke-opacity:0.1; fill:none" points="
  166.42,1505.26 166.42,47.2441 
  "/>
<polyline clip-path="url(#clip022)" style="stroke:#000000; stroke-width:2; stroke-opacity:0.1; fill:none" points="
  697.084,1505.26 697.084,47.2441 
  "/>
<polyline clip-path="url(#clip022)" style="stroke:#000000; stroke-width:2; stroke-opacity:0.1; fill:none" points="
  1227.75,1505.26 1227.75,47.2441 
  "/>
<polyline clip-path="url(#clip022)" style="stroke:#000000; stroke-width:2; stroke-opacity:0.1; fill:none" points="
  1758.41,1505.26 1758.41,47.2441 
  "/>
<polyline clip-path="url(#clip022)" style="stroke:#000000; stroke-width:2; stroke-opacity:0.1; fill:none" points="
  2289.08,1505.26 2289.08,47.2441 
  "/>
<polyline clip-path="url(#clip022)" style="stroke:#000000; stroke-width:2; stroke-opacity:0.1; fill:none" points="
  102.74,1452.53 2352.76,1452.53 
  "/>
<polyline clip-path="url(#clip022)" style="stroke:#000000; stroke-width:2; stroke-opacity:0.1; fill:none" points="
  102.74,1165.97 2352.76,1165.97 
  "/>
<polyline clip-path="url(#clip022)" style="stroke:#000000; stroke-width:2; stroke-opacity:0.1; fill:none" points="
  102.74,879.413 2352.76,879.413 
  "/>
<polyline clip-path="url(#clip022)" style="stroke:#000000; stroke-width:2; stroke-opacity:0.1; fill:none" points="
  102.74,592.854 2352.76,592.854 
  "/>
<polyline clip-path="url(#clip022)" style="stroke:#000000; stroke-width:2; stroke-opacity:0.1; fill:none" points="
  102.74,306.294 2352.76,306.294 
  "/>
<polyline clip-path="url(#clip020)" style="stroke:#000000; stroke-width:4; stroke-opacity:1; fill:none" points="
  102.74,1505.26 2352.76,1505.26 
  "/>
<polyline clip-path="url(#clip020)" style="stroke:#000000; stroke-width:4; stroke-opacity:1; fill:none" points="
  102.74,1505.26 102.74,47.2441 
  "/>
<polyline clip-path="url(#clip020)" style="stroke:#000000; stroke-width:4; stroke-opacity:1; fill:none" points="
  166.42,1505.26 166.42,1487.76 
  "/>
<polyline clip-path="url(#clip020)" style="stroke:#000000; stroke-width:4; stroke-opacity:1; fill:none" points="
  697.084,1505.26 697.084,1487.76 
  "/>
<polyline clip-path="url(#clip020)" style="stroke:#000000; stroke-width:4; stroke-opacity:1; fill:none" points="
  1227.75,1505.26 1227.75,1487.76 
  "/>
<polyline clip-path="url(#clip020)" style="stroke:#000000; stroke-width:4; stroke-opacity:1; fill:none" points="
  1758.41,1505.26 1758.41,1487.76 
  "/>
<polyline clip-path="url(#clip020)" style="stroke:#000000; stroke-width:4; stroke-opacity:1; fill:none" points="
  2289.08,1505.26 2289.08,1487.76 
  "/>
<polyline clip-path="url(#clip020)" style="stroke:#000000; stroke-width:4; stroke-opacity:1; fill:none" points="
  102.74,1452.53 129.74,1452.53 
  "/>
<polyline clip-path="url(#clip020)" style="stroke:#000000; stroke-width:4; stroke-opacity:1; fill:none" points="
  102.74,1165.97 129.74,1165.97 
  "/>
<polyline clip-path="url(#clip020)" style="stroke:#000000; stroke-width:4; stroke-opacity:1; fill:none" points="
  102.74,879.413 129.74,879.413 
  "/>
<polyline clip-path="url(#clip020)" style="stroke:#000000; stroke-width:4; stroke-opacity:1; fill:none" points="
  102.74,592.854 129.74,592.854 
  "/>
<polyline clip-path="url(#clip020)" style="stroke:#000000; stroke-width:4; stroke-opacity:1; fill:none" points="
  102.74,306.294 129.74,306.294 
  "/>
<path clip-path="url(#clip020)" d="M 0 0 M147.936 1527.25 Q144.325 1527.25 142.496 1530.82 Q140.691 1534.36 140.691 1541.49 Q140.691 1548.59 142.496 1552.16 Q144.325 1555.7 147.936 1555.7 Q151.57 1555.7 153.376 1552.16 Q155.205 1548.59 155.205 1541.49 Q155.205 1534.36 153.376 1530.82 Q151.57 1527.25 147.936 1527.25 M147.936 1523.55 Q153.746 1523.55 156.802 1528.15 Q159.881 1532.74 159.881 1541.49 Q159.881 1550.21 156.802 1554.82 Q153.746 1559.4 147.936 1559.4 Q142.126 1559.4 139.047 1554.82 Q135.992 1550.21 135.992 1541.49 Q135.992 1532.74 139.047 1528.15 Q142.126 1523.55 147.936 1523.55 Z" fill="#000000" fill-rule="evenodd" fill-opacity="1" /><path clip-path="url(#clip020)" d="M 0 0 M164.95 1552.85 L169.834 1552.85 L169.834 1558.73 L164.95 1558.73 L164.95 1552.85 Z" fill="#000000" fill-rule="evenodd" fill-opacity="1" /><path clip-path="url(#clip020)" d="M 0 0 M184.904 1527.25 Q181.292 1527.25 179.464 1530.82 Q177.658 1534.36 177.658 1541.49 Q177.658 1548.59 179.464 1552.16 Q181.292 1555.7 184.904 1555.7 Q188.538 1555.7 190.343 1552.16 Q192.172 1548.59 192.172 1541.49 Q192.172 1534.36 190.343 1530.82 Q188.538 1527.25 184.904 1527.25 M184.904 1523.55 Q190.714 1523.55 193.769 1528.15 Q196.848 1532.74 196.848 1541.49 Q196.848 1550.21 193.769 1554.82 Q190.714 1559.4 184.904 1559.4 Q179.093 1559.4 176.015 1554.82 Q172.959 1550.21 172.959 1541.49 Q172.959 1532.74 176.015 1528.15 Q179.093 1523.55 184.904 1523.55 Z" fill="#000000" fill-rule="evenodd" fill-opacity="1" /><path clip-path="url(#clip020)" d="M 0 0 M673.751 1554.8 L690.07 1554.8 L690.07 1558.73 L668.126 1558.73 L668.126 1554.8 Q670.788 1552.04 675.371 1547.41 Q679.978 1542.76 681.158 1541.42 Q683.403 1538.89 684.283 1537.16 Q685.186 1535.4 685.186 1533.71 Q685.186 1530.95 683.241 1529.22 Q681.32 1527.48 678.218 1527.48 Q676.019 1527.48 673.566 1528.25 Q671.135 1529.01 668.357 1530.56 L668.357 1525.84 Q671.181 1524.7 673.635 1524.13 Q676.089 1523.55 678.126 1523.55 Q683.496 1523.55 686.69 1526.23 Q689.885 1528.92 689.885 1533.41 Q689.885 1535.54 689.075 1537.46 Q688.288 1539.36 686.181 1541.95 Q685.603 1542.62 682.501 1545.84 Q679.399 1549.03 673.751 1554.8 Z" fill="#000000" fill-rule="evenodd" fill-opacity="1" /><path clip-path="url(#clip020)" d="M 0 0 M695.14 1552.85 L700.024 1552.85 L700.024 1558.73 L695.14 1558.73 L695.14 1552.85 Z" fill="#000000" fill-rule="evenodd" fill-opacity="1" /><path clip-path="url(#clip020)" d="M 0 0 M705.139 1524.17 L723.496 1524.17 L723.496 1528.11 L709.422 1528.11 L709.422 1536.58 Q710.44 1536.23 711.459 1536.07 Q712.477 1535.88 713.496 1535.88 Q719.283 1535.88 722.663 1539.06 Q726.042 1542.23 726.042 1547.64 Q726.042 1553.22 722.57 1556.32 Q719.098 1559.4 712.778 1559.4 Q710.602 1559.4 708.334 1559.03 Q706.089 1558.66 703.681 1557.92 L703.681 1553.22 Q705.764 1554.36 707.987 1554.91 Q710.209 1555.47 712.686 1555.47 Q716.69 1555.47 719.028 1553.36 Q721.366 1551.26 721.366 1547.64 Q721.366 1544.03 719.028 1541.93 Q716.69 1539.82 712.686 1539.82 Q710.811 1539.82 708.936 1540.24 Q707.084 1540.65 705.139 1541.53 L705.139 1524.17 Z" fill="#000000" fill-rule="evenodd" fill-opacity="1" /><path clip-path="url(#clip020)" d="M 0 0 M1199.54 1524.17 L1217.9 1524.17 L1217.9 1528.11 L1203.82 1528.11 L1203.82 1536.58 Q1204.84 1536.23 1205.86 1536.07 Q1206.88 1535.88 1207.9 1535.88 Q1213.69 1535.88 1217.07 1539.06 Q1220.44 1542.23 1220.44 1547.64 Q1220.44 1553.22 1216.97 1556.32 Q1213.5 1559.4 1207.18 1559.4 Q1205.01 1559.4 1202.74 1559.03 Q1200.49 1558.66 1198.08 1557.92 L1198.08 1553.22 Q1200.17 1554.36 1202.39 1554.91 Q1204.61 1555.47 1207.09 1555.47 Q1211.09 1555.47 1213.43 1553.36 Q1215.77 1551.26 1215.77 1547.64 Q1215.77 1544.03 1213.43 1541.93 Q1211.09 1539.82 1207.09 1539.82 Q1205.21 1539.82 1203.34 1540.24 Q1201.49 1540.65 1199.54 1541.53 L1199.54 1524.17 Z" fill="#000000" fill-rule="evenodd" fill-opacity="1" /><path clip-path="url(#clip020)" d="M 0 0 M1225.51 1552.85 L1230.4 1552.85 L1230.4 1558.73 L1225.51 1558.73 L1225.51 1552.85 Z" fill="#000000" fill-rule="evenodd" fill-opacity="1" /><path clip-path="url(#clip020)" d="M 0 0 M1245.47 1527.25 Q1241.86 1527.25 1240.03 1530.82 Q1238.22 1534.36 1238.22 1541.49 Q1238.22 1548.59 1240.03 1552.16 Q1241.86 1555.7 1245.47 1555.7 Q1249.1 1555.7 1250.91 1552.16 Q1252.74 1548.59 1252.74 1541.49 Q1252.74 1534.36 1250.91 1530.82 Q1249.1 1527.25 1245.47 1527.25 M1245.47 1523.55 Q1251.28 1523.55 1254.33 1528.15 Q1257.41 1532.74 1257.41 1541.49 Q1257.41 1550.21 1254.33 1554.82 Q1251.28 1559.4 1245.47 1559.4 Q1239.66 1559.4 1236.58 1554.82 Q1233.52 1550.21 1233.52 1541.49 Q1233.52 1532.74 1236.58 1528.15 Q1239.66 1523.55 1245.47 1523.55 Z" fill="#000000" fill-rule="evenodd" fill-opacity="1" /><path clip-path="url(#clip020)" d="M 0 0 M1729.32 1524.17 L1751.54 1524.17 L1751.54 1526.16 L1738.99 1558.73 L1734.11 1558.73 L1745.91 1528.11 L1729.32 1528.11 L1729.32 1524.17 Z" fill="#000000" fill-rule="evenodd" fill-opacity="1" /><path clip-path="url(#clip020)" d="M 0 0 M1756.61 1552.85 L1761.49 1552.85 L1761.49 1558.73 L1756.61 1558.73 L1756.61 1552.85 Z" fill="#000000" fill-rule="evenodd" fill-opacity="1" /><path clip-path="url(#clip020)" d="M 0 0 M1766.61 1524.17 L1784.96 1524.17 L1784.96 1528.11 L1770.89 1528.11 L1770.89 1536.58 Q1771.91 1536.23 1772.93 1536.07 Q1773.94 1535.88 1774.96 1535.88 Q1780.75 1535.88 1784.13 1539.06 Q1787.51 1542.23 1787.51 1547.64 Q1787.51 1553.22 1784.04 1556.32 Q1780.56 1559.4 1774.25 1559.4 Q1772.07 1559.4 1769.8 1559.03 Q1767.56 1558.66 1765.15 1557.92 L1765.15 1553.22 Q1767.23 1554.36 1769.45 1554.91 Q1771.68 1555.47 1774.15 1555.47 Q1778.16 1555.47 1780.5 1553.36 Q1782.83 1551.26 1782.83 1547.64 Q1782.83 1544.03 1780.5 1541.93 Q1778.16 1539.82 1774.15 1539.82 Q1772.28 1539.82 1770.4 1540.24 Q1768.55 1540.65 1766.61 1541.53 L1766.61 1524.17 Z" fill="#000000" fill-rule="evenodd" fill-opacity="1" /><path clip-path="url(#clip020)" d="M 0 0 M2247.47 1554.8 L2255.11 1554.8 L2255.11 1528.43 L2246.8 1530.1 L2246.8 1525.84 L2255.06 1524.17 L2259.74 1524.17 L2259.74 1554.8 L2267.37 1554.8 L2267.37 1558.73 L2247.47 1558.73 L2247.47 1554.8 Z" fill="#000000" fill-rule="evenodd" fill-opacity="1" /><path clip-path="url(#clip020)" d="M 0 0 M2282.44 1527.25 Q2278.83 1527.25 2277 1530.82 Q2275.2 1534.36 2275.2 1541.49 Q2275.2 1548.59 2277 1552.16 Q2278.83 1555.7 2282.44 1555.7 Q2286.08 1555.7 2287.88 1552.16 Q2289.71 1548.59 2289.71 1541.49 Q2289.71 1534.36 2287.88 1530.82 Q2286.08 1527.25 2282.44 1527.25 M2282.44 1523.55 Q2288.25 1523.55 2291.31 1528.15 Q2294.39 1532.74 2294.39 1541.49 Q2294.39 1550.21 2291.31 1554.82 Q2288.25 1559.4 2282.44 1559.4 Q2276.63 1559.4 2273.56 1554.82 Q2270.5 1550.21 2270.5 1541.49 Q2270.5 1532.74 2273.56 1528.15 Q2276.63 1523.55 2282.44 1523.55 Z" fill="#000000" fill-rule="evenodd" fill-opacity="1" /><path clip-path="url(#clip020)" d="M 0 0 M2299.46 1552.85 L2304.34 1552.85 L2304.34 1558.73 L2299.46 1558.73 L2299.46 1552.85 Z" fill="#000000" fill-rule="evenodd" fill-opacity="1" /><path clip-path="url(#clip020)" d="M 0 0 M2319.41 1527.25 Q2315.8 1527.25 2313.97 1530.82 Q2312.17 1534.36 2312.17 1541.49 Q2312.17 1548.59 2313.97 1552.16 Q2315.8 1555.7 2319.41 1555.7 Q2323.05 1555.7 2324.85 1552.16 Q2326.68 1548.59 2326.68 1541.49 Q2326.68 1534.36 2324.85 1530.82 Q2323.05 1527.25 2319.41 1527.25 M2319.41 1523.55 Q2325.22 1523.55 2328.28 1528.15 Q2331.36 1532.74 2331.36 1541.49 Q2331.36 1550.21 2328.28 1554.82 Q2325.22 1559.4 2319.41 1559.4 Q2313.6 1559.4 2310.52 1554.82 Q2307.47 1550.21 2307.47 1541.49 Q2307.47 1532.74 2310.52 1528.15 Q2313.6 1523.55 2319.41 1523.55 Z" fill="#000000" fill-rule="evenodd" fill-opacity="1" /><path clip-path="url(#clip020)" d="M 0 0 M66.7958 1438.33 Q63.1847 1438.33 61.356 1441.9 Q59.5504 1445.44 59.5504 1452.57 Q59.5504 1459.67 61.356 1463.24 Q63.1847 1466.78 66.7958 1466.78 Q70.43 1466.78 72.2356 1463.24 Q74.0643 1459.67 74.0643 1452.57 Q74.0643 1445.44 72.2356 1441.9 Q70.43 1438.33 66.7958 1438.33 M66.7958 1434.63 Q72.6059 1434.63 75.6615 1439.23 Q78.7402 1443.82 78.7402 1452.57 Q78.7402 1461.29 75.6615 1465.9 Q72.6059 1470.48 66.7958 1470.48 Q60.9856 1470.48 57.9069 1465.9 Q54.8514 1461.29 54.8514 1452.57 Q54.8514 1443.82 57.9069 1439.23 Q60.9856 1434.63 66.7958 1434.63 Z" fill="#000000" fill-rule="evenodd" fill-opacity="1" /><path clip-path="url(#clip020)" d="M 0 0 M36.4024 1179.32 L52.7218 1179.32 L52.7218 1183.25 L30.7775 1183.25 L30.7775 1179.32 Q33.4395 1176.56 38.0228 1171.93 Q42.6292 1167.28 43.8098 1165.94 Q46.0551 1163.42 46.9348 1161.68 Q47.8375 1159.92 47.8375 1158.23 Q47.8375 1155.48 45.8931 1153.74 Q43.9718 1152 40.87 1152 Q38.6709 1152 36.2172 1152.77 Q33.7867 1153.53 31.0089 1155.08 L31.0089 1150.36 Q33.833 1149.23 36.2867 1148.65 Q38.7404 1148.07 40.7774 1148.07 Q46.1477 1148.07 49.3422 1150.75 Q52.5366 1153.44 52.5366 1157.93 Q52.5366 1160.06 51.7264 1161.98 Q50.9394 1163.88 48.8329 1166.47 Q48.2542 1167.14 45.1524 1170.36 Q42.0505 1173.55 36.4024 1179.32 Z" fill="#000000" fill-rule="evenodd" fill-opacity="1" /><path clip-path="url(#clip020)" d="M 0 0 M57.8375 1148.69 L76.1939 1148.69 L76.1939 1152.63 L62.1199 1152.63 L62.1199 1161.1 Q63.1384 1160.75 64.1569 1160.59 Q65.1754 1160.41 66.1939 1160.41 Q71.9809 1160.41 75.3605 1163.58 Q78.7402 1166.75 78.7402 1172.17 Q78.7402 1177.74 75.268 1180.85 Q71.7958 1183.92 65.4763 1183.92 Q63.3004 1183.92 61.0319 1183.55 Q58.7866 1183.18 56.3792 1182.44 L56.3792 1177.74 Q58.4625 1178.88 60.6847 1179.43 Q62.9069 1179.99 65.3837 1179.99 Q69.3884 1179.99 71.7263 1177.88 Q74.0643 1175.78 74.0643 1172.17 Q74.0643 1168.55 71.7263 1166.45 Q69.3884 1164.34 65.3837 1164.34 Q63.5088 1164.34 61.6338 1164.76 Q59.7819 1165.17 57.8375 1166.05 L57.8375 1148.69 Z" fill="#000000" fill-rule="evenodd" fill-opacity="1" /><path clip-path="url(#clip020)" d="M 0 0 M30.8237 862.133 L49.1801 862.133 L49.1801 866.069 L35.1061 866.069 L35.1061 874.541 Q36.1246 874.194 37.1432 874.032 Q38.1617 873.846 39.1802 873.846 Q44.9672 873.846 48.3468 877.018 Q51.7264 880.189 51.7264 885.606 Q51.7264 891.184 48.2542 894.286 Q44.782 897.365 38.4626 897.365 Q36.2867 897.365 34.0182 896.994 Q31.7728 896.624 29.3654 895.883 L29.3654 891.184 Q31.4487 892.318 33.671 892.874 Q35.8932 893.43 38.37 893.43 Q42.3746 893.43 44.7126 891.323 Q47.0505 889.217 47.0505 885.606 Q47.0505 881.994 44.7126 879.888 Q42.3746 877.782 38.37 877.782 Q36.495 877.782 34.62 878.198 Q32.7682 878.615 30.8237 879.494 L30.8237 862.133 Z" fill="#000000" fill-rule="evenodd" fill-opacity="1" /><path clip-path="url(#clip020)" d="M 0 0 M66.7958 865.212 Q63.1847 865.212 61.356 868.777 Q59.5504 872.319 59.5504 879.448 Q59.5504 886.555 61.356 890.119 Q63.1847 893.661 66.7958 893.661 Q70.43 893.661 72.2356 890.119 Q74.0643 886.555 74.0643 879.448 Q74.0643 872.319 72.2356 868.777 Q70.43 865.212 66.7958 865.212 M66.7958 861.508 Q72.6059 861.508 75.6615 866.115 Q78.7402 870.698 78.7402 879.448 Q78.7402 888.175 75.6615 892.781 Q72.6059 897.365 66.7958 897.365 Q60.9856 897.365 57.9069 892.781 Q54.8514 888.175 54.8514 879.448 Q54.8514 870.698 57.9069 866.115 Q60.9856 861.508 66.7958 861.508 Z" fill="#000000" fill-rule="evenodd" fill-opacity="1" /><path clip-path="url(#clip020)" d="M 0 0 M30.4997 575.574 L52.7218 575.574 L52.7218 577.564 L40.1755 610.134 L35.2913 610.134 L47.0968 579.509 L30.4997 579.509 L30.4997 575.574 Z" fill="#000000" fill-rule="evenodd" fill-opacity="1" /><path clip-path="url(#clip020)" d="M 0 0 M57.8375 575.574 L76.1939 575.574 L76.1939 579.509 L62.1199 579.509 L62.1199 587.981 Q63.1384 587.634 64.1569 587.472 Q65.1754 587.287 66.1939 587.287 Q71.9809 587.287 75.3605 590.458 Q78.7402 593.629 78.7402 599.046 Q78.7402 604.625 75.268 607.726 Q71.7958 610.805 65.4763 610.805 Q63.3004 610.805 61.0319 610.435 Q58.7866 610.064 56.3792 609.324 L56.3792 604.625 Q58.4625 605.759 60.6847 606.314 Q62.9069 606.87 65.3837 606.87 Q69.3884 606.87 71.7263 604.763 Q74.0643 602.657 74.0643 599.046 Q74.0643 595.435 71.7263 593.328 Q69.3884 591.222 65.3837 591.222 Q63.5088 591.222 61.6338 591.638 Q59.7819 592.055 57.8375 592.935 L57.8375 575.574 Z" fill="#000000" fill-rule="evenodd" fill-opacity="1" /><path clip-path="url(#clip020)" d="M 0 0 M4.80537 319.639 L12.4442 319.639 L12.4442 293.273 L4.13408 294.94 L4.13408 290.681 L12.3979 289.014 L17.0738 289.014 L17.0738 319.639 L24.7127 319.639 L24.7127 323.574 L4.80537 323.574 L4.80537 319.639 Z" fill="#000000" fill-rule="evenodd" fill-opacity="1" /><path clip-path="url(#clip020)" d="M 0 0 M39.782 292.093 Q36.1709 292.093 34.3422 295.658 Q32.5367 299.199 32.5367 306.329 Q32.5367 313.435 34.3422 317 Q36.1709 320.542 39.782 320.542 Q43.4163 320.542 45.2218 317 Q47.0505 313.435 47.0505 306.329 Q47.0505 299.199 45.2218 295.658 Q43.4163 292.093 39.782 292.093 M39.782 288.389 Q45.5922 288.389 48.6477 292.996 Q51.7264 297.579 51.7264 306.329 Q51.7264 315.056 48.6477 319.662 Q45.5922 324.245 39.782 324.245 Q33.9719 324.245 30.8932 319.662 Q27.8377 315.056 27.8377 306.329 Q27.8377 297.579 30.8932 292.996 Q33.9719 288.389 39.782 288.389 Z" fill="#000000" fill-rule="evenodd" fill-opacity="1" /><path clip-path="url(#clip020)" d="M 0 0 M66.7958 292.093 Q63.1847 292.093 61.356 295.658 Q59.5504 299.199 59.5504 306.329 Q59.5504 313.435 61.356 317 Q63.1847 320.542 66.7958 320.542 Q70.43 320.542 72.2356 317 Q74.0643 313.435 74.0643 306.329 Q74.0643 299.199 72.2356 295.658 Q70.43 292.093 66.7958 292.093 M66.7958 288.389 Q72.6059 288.389 75.6615 292.996 Q78.7402 297.579 78.7402 306.329 Q78.7402 315.056 75.6615 319.662 Q72.6059 324.245 66.7958 324.245 Q60.9856 324.245 57.9069 319.662 Q54.8514 315.056 54.8514 306.329 Q54.8514 297.579 57.9069 292.996 Q60.9856 288.389 66.7958 288.389 Z" fill="#000000" fill-rule="evenodd" fill-opacity="1" /><path clip-path="url(#clip020)" d="M 0 0 M1244.36 1602.48 L1231.47 1619.82 L1245.03 1638.12 L1238.12 1638.12 L1227.75 1624.12 L1217.37 1638.12 L1210.47 1638.12 L1224.31 1619.47 L1211.64 1602.48 L1218.55 1602.48 L1228 1615.18 L1237.46 1602.48 L1244.36 1602.48 Z" fill="#000000" fill-rule="evenodd" fill-opacity="1" /><path clip-path="url(#clip020)" d="M 0 0 M-30.8118 774.565 Q-24.4461 777.048 -22.5045 779.403 Q-20.563 781.758 -20.563 785.705 L-20.563 790.384 L-25.4646 790.384 L-25.4646 786.946 Q-25.4646 784.527 -26.6104 783.191 Q-27.7562 781.854 -32.0212 780.231 L-34.6948 779.18 L-69.7699 793.599 L-69.7699 787.392 L-41.8881 776.252 L-69.7699 765.112 L-69.7699 758.905 L-30.8118 774.565 Z" fill="#000000" fill-rule="evenodd" fill-opacity="1" /><polyline clip-path="url(#clip022)" style="stroke:#009af9; stroke-width:4; stroke-opacity:1; fill:none" points="
  166.42,1464 187.149,1461.65 378.823,1429.58 494.011,1401.31 591.401,1372.15 697.194,1335 794.726,1295.71 899.29,1248.21 1020.44,1186.22 1128.1,1124.86 
  1222.51,1066.2 1325.44,997.078 1428.99,922.107 1543.47,832.867 1652.39,741.767 1765.65,640.642 1860.99,550.457 1977.39,434.082 2086.8,318.4 2262.1,120.372 
  2289.08,88.5087 
  "/>
<path clip-path="url(#clip020)" d="
M1976.74 216.805 L2277.76 216.805 L2277.76 95.8446 L1976.74 95.8446  Z
  " fill="#ffffff" fill-rule="evenodd" fill-opacity="1"/>
<polyline clip-path="url(#clip020)" style="stroke:#000000; stroke-width:4; stroke-opacity:1; fill:none" points="
  1976.74,216.805 2277.76,216.805 2277.76,95.8446 1976.74,95.8446 1976.74,216.805 
  "/>
<polyline clip-path="url(#clip020)" style="stroke:#009af9; stroke-width:4; stroke-opacity:1; fill:none" points="
  2001.74,156.325 2151.74,156.325 
  "/>
<path clip-path="url(#clip020)" d="M 0 0 M2190.58 176.012 Q2188.77 180.642 2187.06 182.054 Q2185.35 183.466 2182.48 183.466 L2179.07 183.466 L2179.07 179.901 L2181.57 179.901 Q2183.33 179.901 2184.31 179.068 Q2185.28 178.234 2186.46 175.132 L2187.22 173.188 L2176.74 147.679 L2181.25 147.679 L2189.35 167.957 L2197.45 147.679 L2201.97 147.679 L2190.58 176.012 Z" fill="#000000" fill-rule="evenodd" fill-opacity="1" /><path clip-path="url(#clip020)" d="M 0 0 M2207.85 169.669 L2215.49 169.669 L2215.49 143.304 L2207.18 144.971 L2207.18 140.711 L2215.44 139.045 L2220.12 139.045 L2220.12 169.669 L2227.76 169.669 L2227.76 173.605 L2207.85 173.605 L2207.85 169.669 Z" fill="#000000" fill-rule="evenodd" fill-opacity="1" /></svg>
