<?xml version="1.0" encoding="utf-8"?>
<svg xmlns="http://www.w3.org/2000/svg" xmlns:xlink="http://www.w3.org/1999/xlink" width="600" height="400" viewBox="0 0 2400 1600">
<defs>
  <clipPath id="clip440">
    <rect x="0" y="0" width="2400" height="1600"/>
  </clipPath>
</defs>
<path clip-path="url(#clip440)" d="
M0 1600 L2400 1600 L2400 0 L0 0  Z
  " fill="#ffffff" fill-rule="evenodd" fill-opacity="1"/>
<defs>
  <clipPath id="clip441">
    <rect x="480" y="0" width="1681" height="1600"/>
  </clipPath>
</defs>
<path clip-path="url(#clip440)" d="
M102.74 1505.26 L2352.76 1505.26 L2352.76 47.2441 L102.74 47.2441  Z
  " fill="#ffffff" fill-rule="evenodd" fill-opacity="1"/>
<defs>
  <clipPath id="clip442">
    <rect x="102" y="47" width="2251" height="1459"/>
  </clipPath>
</defs>
<polyline clip-path="url(#clip442)" style="stroke:#000000; stroke-width:2; stroke-opacity:0.1; fill:none" points="
  166.42,1505.26 166.42,47.2441 
  "/>
<polyline clip-path="url(#clip442)" style="stroke:#000000; stroke-width:2; stroke-opacity:0.1; fill:none" points="
  697.084,1505.26 697.084,47.2441 
  "/>
<polyline clip-path="url(#clip442)" style="stroke:#000000; stroke-width:2; stroke-opacity:0.1; fill:none" points="
  1227.75,1505.26 1227.75,47.2441 
  "/>
<polyline clip-path="url(#clip442)" style="stroke:#000000; stroke-width:2; stroke-opacity:0.1; fill:none" points="
  1758.41,1505.26 1758.41,47.2441 
  "/>
<polyline clip-path="url(#clip442)" style="stroke:#000000; stroke-width:2; stroke-opacity:0.1; fill:none" points="
  2289.08,1505.26 2289.08,47.2441 
  "/>
<polyline clip-path="url(#clip440)" style="stroke:#000000; stroke-width:4; stroke-opacity:1; fill:none" points="
  102.74,1505.26 2352.76,1505.26 
  "/>
<polyline clip-path="url(#clip440)" style="stroke:#000000; stroke-width:4; stroke-opacity:1; fill:none" points="
  166.42,1505.26 166.42,1487.76 
  "/>
<polyline clip-path="url(#clip440)" style="stroke:#000000; stroke-width:4; stroke-opacity:1; fill:none" points="
  697.084,1505.26 697.084,1487.76 
  "/>
<polyline clip-path="url(#clip440)" style="stroke:#000000; stroke-width:4; stroke-opacity:1; fill:none" points="
  1227.75,1505.26 1227.75,1487.76 
  "/>
<polyline clip-path="url(#clip440)" style="stroke:#000000; stroke-width:4; stroke-opacity:1; fill:none" points="
  1758.41,1505.26 1758.41,1487.76 
  "/>
<polyline clip-path="url(#clip440)" style="stroke:#000000; stroke-width:4; stroke-opacity:1; fill:none" points="
  2289.08,1505.26 2289.08,1487.76 
  "/>
<path clip-path="url(#clip440)" d="M 0 0 M147.936 1534.45 Q144.325 1534.45 142.496 1538.02 Q140.691 1541.56 140.691 1548.69 Q140.691 1555.79 142.496 1559.36 Q144.325 1562.9 147.936 1562.9 Q151.57 1562.9 153.376 1559.36 Q155.205 1555.79 155.205 1548.69 Q155.205 1541.56 153.376 1538.02 Q151.57 1534.45 147.936 1534.45 M147.936 1530.75 Q153.746 1530.75 156.802 1535.35 Q159.881 1539.94 159.881 1548.69 Q159.881 1557.41 156.802 1562.02 Q153.746 1566.6 147.936 1566.6 Q142.126 1566.6 139.047 1562.02 Q135.992 1557.41 135.992 1548.69 Q135.992 1539.94 139.047 1535.35 Q142.126 1530.75 147.936 1530.75 Z" fill="#000000" fill-rule="evenodd" fill-opacity="1" /><path clip-path="url(#clip440)" d="M 0 0 M164.95 1560.05 L169.834 1560.05 L169.834 1565.93 L164.95 1565.93 L164.95 1560.05 Z" fill="#000000" fill-rule="evenodd" fill-opacity="1" /><path clip-path="url(#clip440)" d="M 0 0 M184.904 1534.45 Q181.292 1534.45 179.464 1538.02 Q177.658 1541.56 177.658 1548.69 Q177.658 1555.79 179.464 1559.36 Q181.292 1562.9 184.904 1562.9 Q188.538 1562.9 190.343 1559.36 Q192.172 1555.79 192.172 1548.69 Q192.172 1541.56 190.343 1538.02 Q188.538 1534.45 184.904 1534.45 M184.904 1530.75 Q190.714 1530.75 193.769 1535.35 Q196.848 1539.94 196.848 1548.69 Q196.848 1557.41 193.769 1562.02 Q190.714 1566.6 184.904 1566.6 Q179.093 1566.6 176.015 1562.02 Q172.959 1557.41 172.959 1548.69 Q172.959 1539.94 176.015 1535.35 Q179.093 1530.75 184.904 1530.75 Z" fill="#000000" fill-rule="evenodd" fill-opacity="1" /><path clip-path="url(#clip440)" d="M 0 0 M673.751 1562 L690.07 1562 L690.07 1565.93 L668.126 1565.93 L668.126 1562 Q670.788 1559.24 675.371 1554.61 Q679.978 1549.96 681.158 1548.62 Q683.403 1546.09 684.283 1544.36 Q685.186 1542.6 685.186 1540.91 Q685.186 1538.15 683.241 1536.42 Q681.32 1534.68 678.218 1534.68 Q676.019 1534.68 673.566 1535.45 Q671.135 1536.21 668.357 1537.76 L668.357 1533.04 Q671.181 1531.9 673.635 1531.33 Q676.089 1530.75 678.126 1530.75 Q683.496 1530.75 686.69 1533.43 Q689.885 1536.12 689.885 1540.61 Q689.885 1542.74 689.075 1544.66 Q688.288 1546.56 686.181 1549.15 Q685.603 1549.82 682.501 1553.04 Q679.399 1556.23 673.751 1562 Z" fill="#000000" fill-rule="evenodd" fill-opacity="1" /><path clip-path="url(#clip440)" d="M 0 0 M695.14 1560.05 L700.024 1560.05 L700.024 1565.93 L695.14 1565.93 L695.14 1560.05 Z" fill="#000000" fill-rule="evenodd" fill-opacity="1" /><path clip-path="url(#clip440)" d="M 0 0 M705.139 1531.37 L723.496 1531.37 L723.496 1535.31 L709.422 1535.31 L709.422 1543.78 Q710.44 1543.43 711.459 1543.27 Q712.477 1543.08 713.496 1543.08 Q719.283 1543.08 722.663 1546.26 Q726.042 1549.43 726.042 1554.84 Q726.042 1560.42 722.57 1563.52 Q719.098 1566.6 712.778 1566.6 Q710.602 1566.6 708.334 1566.23 Q706.089 1565.86 703.681 1565.12 L703.681 1560.42 Q705.764 1561.56 707.987 1562.11 Q710.209 1562.67 712.686 1562.67 Q716.69 1562.67 719.028 1560.56 Q721.366 1558.46 721.366 1554.84 Q721.366 1551.23 719.028 1549.13 Q716.69 1547.02 712.686 1547.02 Q710.811 1547.02 708.936 1547.44 Q707.084 1547.85 705.139 1548.73 L705.139 1531.37 Z" fill="#000000" fill-rule="evenodd" fill-opacity="1" /><path clip-path="url(#clip440)" d="M 0 0 M1199.54 1531.37 L1217.9 1531.37 L1217.9 1535.31 L1203.82 1535.31 L1203.82 1543.78 Q1204.84 1543.43 1205.86 1543.27 Q1206.88 1543.08 1207.9 1543.08 Q1213.69 1543.08 1217.07 1546.26 Q1220.44 1549.43 1220.44 1554.84 Q1220.44 1560.42 1216.97 1563.52 Q1213.5 1566.6 1207.18 1566.6 Q1205.01 1566.6 1202.74 1566.23 Q1200.49 1565.86 1198.08 1565.12 L1198.08 1560.42 Q1200.17 1561.56 1202.39 1562.11 Q1204.61 1562.67 1207.09 1562.67 Q1211.09 1562.67 1213.43 1560.56 Q1215.77 1558.46 1215.77 1554.84 Q1215.77 1551.23 1213.43 1549.13 Q1211.09 1547.02 1207.09 1547.02 Q1205.21 1547.02 1203.34 1547.44 Q1201.49 1547.85 1199.54 1548.73 L1199.54 1531.37 Z" fill="#000000" fill-rule="evenodd" fill-opacity="1" /><path clip-path="url(#clip440)" d="M 0 0 M1225.51 1560.05 L1230.4 1560.05 L1230.4 1565.93 L1225.51 1565.93 L1225.51 1560.05 Z" fill="#000000" fill-rule="evenodd" fill-opacity="1" /><path clip-path="url(#clip440)" d="M 0 0 M1245.47 1534.45 Q1241.86 1534.45 1240.03 1538.02 Q1238.22 1541.56 1238.22 1548.69 Q1238.22 1555.79 1240.03 1559.36 Q1241.86 1562.9 1245.47 1562.9 Q1249.1 1562.9 1250.91 1559.36 Q1252.74 1555.79 1252.74 1548.69 Q1252.74 1541.56 1250.91 1538.02 Q1249.1 1534.45 1245.47 1534.45 M1245.47 1530.75 Q1251.28 1530.75 1254.33 1535.35 Q1257.41 1539.94 1257.41 1548.69 Q1257.41 1557.41 1254.33 1562.02 Q1251.28 1566.6 1245.47 1566.6 Q1239.66 1566.6 1236.58 1562.02 Q1233.52 1557.41 1233.52 1548.69 Q1233.52 1539.94 1236.58 1535.35 Q1239.66 1530.75 1245.47 1530.75 Z" fill="#000000" fill-rule="evenodd" fill-opacity="1" /><path clip-path="url(#clip440)" d="M 0 0 M1729.32 1531.37 L1751.54 1531.37 L1751.54 1533.36 L1738.99 1565.93 L1734.11 1565.93 L1745.91 1535.31 L1729.32 1535.31 L1729.32 1531.37 Z" fill="#000000" fill-rule="evenodd" fill-opacity="1" /><path clip-path="url(#clip440)" d="M 0 0 M1756.61 1560.05 L1761.49 1560.05 L1761.49 1565.93 L1756.61 1565.93 L1756.61 1560.05 Z" fill="#000000" fill-rule="evenodd" fill-opacity="1" /><path clip-path="url(#clip440)" d="M 0 0 M1766.61 1531.37 L1784.96 1531.37 L1784.96 1535.31 L1770.89 1535.31 L1770.89 1543.78 Q1771.91 1543.43 1772.93 1543.27 Q1773.94 1543.08 1774.96 1543.08 Q1780.75 1543.08 1784.13 1546.26 Q1787.51 1549.43 1787.51 1554.84 Q1787.51 1560.42 1784.04 1563.52 Q1780.56 1566.6 1774.25 1566.6 Q1772.07 1566.6 1769.8 1566.23 Q1767.56 1565.86 1765.15 1565.12 L1765.15 1560.42 Q1767.23 1561.56 1769.45 1562.11 Q1771.68 1562.67 1774.15 1562.67 Q1778.16 1562.67 1780.5 1560.56 Q1782.83 1558.46 1782.83 1554.84 Q1782.83 1551.23 1780.5 1549.13 Q1778.16 1547.02 1774.15 1547.02 Q1772.28 1547.02 1770.4 1547.44 Q1768.55 1547.85 1766.61 1548.73 L1766.61 1531.37 Z" fill="#000000" fill-rule="evenodd" fill-opacity="1" /><path clip-path="url(#clip440)" d="M 0 0 M2247.47 1562 L2255.11 1562 L2255.11 1535.63 L2246.8 1537.3 L2246.8 1533.04 L2255.06 1531.37 L2259.74 1531.37 L2259.74 1562 L2267.37 1562 L2267.37 1565.93 L2247.47 1565.93 L2247.47 1562 Z" fill="#000000" fill-rule="evenodd" fill-opacity="1" /><path clip-path="url(#clip440)" d="M 0 0 M2282.44 1534.45 Q2278.83 1534.45 2277 1538.02 Q2275.2 1541.56 2275.2 1548.69 Q2275.2 1555.79 2277 1559.36 Q2278.83 1562.9 2282.44 1562.9 Q2286.08 1562.9 2287.88 1559.36 Q2289.71 1555.79 2289.71 1548.69 Q2289.71 1541.56 2287.88 1538.02 Q2286.08 1534.45 2282.44 1534.45 M2282.44 1530.75 Q2288.25 1530.75 2291.31 1535.35 Q2294.39 1539.94 2294.39 1548.69 Q2294.39 1557.41 2291.31 1562.02 Q2288.25 1566.6 2282.44 1566.6 Q2276.63 1566.6 2273.56 1562.02 Q2270.5 1557.41 2270.5 1548.69 Q2270.5 1539.94 2273.56 1535.35 Q2276.63 1530.75 2282.44 1530.75 Z" fill="#000000" fill-rule="evenodd" fill-opacity="1" /><path clip-path="url(#clip440)" d="M 0 0 M2299.46 1560.05 L2304.34 1560.05 L2304.34 1565.93 L2299.46 1565.93 L2299.46 1560.05 Z" fill="#000000" fill-rule="evenodd" fill-opacity="1" /><path clip-path="url(#clip440)" d="M 0 0 M2319.41 1534.45 Q2315.8 1534.45 2313.97 1538.02 Q2312.17 1541.56 2312.17 1548.69 Q2312.17 1555.79 2313.97 1559.36 Q2315.8 1562.9 2319.41 1562.9 Q2323.05 1562.9 2324.85 1559.36 Q2326.68 1555.79 2326.68 1548.69 Q2326.68 1541.56 2324.85 1538.02 Q2323.05 1534.45 2319.41 1534.45 M2319.41 1530.75 Q2325.22 1530.75 2328.28 1535.35 Q2331.36 1539.94 2331.36 1548.69 Q2331.36 1557.41 2328.28 1562.02 Q2325.22 1566.6 2319.41 1566.6 Q2313.6 1566.6 2310.52 1562.02 Q2307.47 1557.41 2307.47 1548.69 Q2307.47 1539.94 2310.52 1535.35 Q2313.6 1530.75 2319.41 1530.75 Z" fill="#000000" fill-rule="evenodd" fill-opacity="1" /><path clip-path="url(#clip440)" d="M 0 0 M1244.36 1602.48 L1231.47 1619.82 L1245.03 1638.12 L1238.12 1638.12 L1227.75 1624.12 L1217.37 1638.12 L1210.47 1638.12 L1224.31 1619.47 L1211.64 1602.48 L1218.55 1602.48 L1228 1615.18 L1237.46 1602.48 L1244.36 1602.48 Z" fill="#000000" fill-rule="evenodd" fill-opacity="1" /><polyline clip-path="url(#clip442)" style="stroke:#000000; stroke-width:2; stroke-opacity:0.1; fill:none" points="
  102.74,1452.53 2352.76,1452.53 
  "/>
<polyline clip-path="url(#clip442)" style="stroke:#000000; stroke-width:2; stroke-opacity:0.1; fill:none" points="
  102.74,1165.97 2352.76,1165.97 
  "/>
<polyline clip-path="url(#clip442)" style="stroke:#000000; stroke-width:2; stroke-opacity:0.1; fill:none" points="
  102.74,879.413 2352.76,879.413 
  "/>
<polyline clip-path="url(#clip442)" style="stroke:#000000; stroke-width:2; stroke-opacity:0.1; fill:none" points="
  102.74,592.854 2352.76,592.854 
  "/>
<polyline clip-path="url(#clip442)" style="stroke:#000000; stroke-width:2; stroke-opacity:0.1; fill:none" points="
  102.74,306.294 2352.76,306.294 
  "/>
<polyline clip-path="url(#clip440)" style="stroke:#000000; stroke-width:4; stroke-opacity:1; fill:none" points="
  102.74,1505.26 102.74,47.2441 
  "/>
<polyline clip-path="url(#clip440)" style="stroke:#000000; stroke-width:4; stroke-opacity:1; fill:none" points="
  102.74,1452.53 129.74,1452.53 
  "/>
<polyline clip-path="url(#clip440)" style="stroke:#000000; stroke-width:4; stroke-opacity:1; fill:none" points="
  102.74,1165.97 129.74,1165.97 
  "/>
<polyline clip-path="url(#clip440)" style="stroke:#000000; stroke-width:4; stroke-opacity:1; fill:none" points="
  102.74,879.413 129.74,879.413 
  "/>
<polyline clip-path="url(#clip440)" style="stroke:#000000; stroke-width:4; stroke-opacity:1; fill:none" points="
  102.74,592.854 129.74,592.854 
  "/>
<polyline clip-path="url(#clip440)" style="stroke:#000000; stroke-width:4; stroke-opacity:1; fill:none" points="
  102.74,306.294 129.74,306.294 
  "/>
<path clip-path="url(#clip440)" d="M 0 0 M54.7958 1438.33 Q51.1847 1438.33 49.356 1441.9 Q47.5504 1445.44 47.5504 1452.57 Q47.5504 1459.67 49.356 1463.24 Q51.1847 1466.78 54.7958 1466.78 Q58.43 1466.78 60.2356 1463.24 Q62.0643 1459.67 62.0643 1452.57 Q62.0643 1445.44 60.2356 1441.9 Q58.43 1438.33 54.7958 1438.33 M54.7958 1434.63 Q60.6059 1434.63 63.6615 1439.23 Q66.7402 1443.82 66.7402 1452.57 Q66.7402 1461.29 63.6615 1465.9 Q60.6059 1470.48 54.7958 1470.48 Q48.9856 1470.48 45.9069 1465.9 Q42.8514 1461.29 42.8514 1452.57 Q42.8514 1443.82 45.9069 1439.23 Q48.9856 1434.63 54.7958 1434.63 Z" fill="#000000" fill-rule="evenodd" fill-opacity="1" /><path clip-path="url(#clip440)" d="M 0 0 M24.4024 1179.32 L40.7218 1179.32 L40.7218 1183.25 L18.7775 1183.25 L18.7775 1179.32 Q21.4395 1176.56 26.0228 1171.93 Q30.6292 1167.28 31.8098 1165.94 Q34.0551 1163.42 34.9348 1161.68 Q35.8375 1159.92 35.8375 1158.23 Q35.8375 1155.48 33.8931 1153.74 Q31.9718 1152 28.87 1152 Q26.6709 1152 24.2172 1152.77 Q21.7867 1153.53 19.0089 1155.08 L19.0089 1150.36 Q21.833 1149.23 24.2867 1148.65 Q26.7404 1148.07 28.7774 1148.07 Q34.1477 1148.07 37.3422 1150.75 Q40.5366 1153.44 40.5366 1157.93 Q40.5366 1160.06 39.7264 1161.98 Q38.9394 1163.88 36.8329 1166.47 Q36.2542 1167.14 33.1524 1170.36 Q30.0505 1173.55 24.4024 1179.32 Z" fill="#000000" fill-rule="evenodd" fill-opacity="1" /><path clip-path="url(#clip440)" d="M 0 0 M45.8375 1148.69 L64.1939 1148.69 L64.1939 1152.63 L50.1199 1152.63 L50.1199 1161.1 Q51.1384 1160.75 52.1569 1160.59 Q53.1754 1160.41 54.1939 1160.41 Q59.9809 1160.41 63.3605 1163.58 Q66.7402 1166.75 66.7402 1172.17 Q66.7402 1177.74 63.268 1180.85 Q59.7958 1183.92 53.4763 1183.92 Q51.3004 1183.92 49.0319 1183.55 Q46.7866 1183.18 44.3792 1182.44 L44.3792 1177.74 Q46.4625 1178.88 48.6847 1179.43 Q50.9069 1179.99 53.3837 1179.99 Q57.3884 1179.99 59.7263 1177.88 Q62.0643 1175.78 62.0643 1172.17 Q62.0643 1168.55 59.7263 1166.45 Q57.3884 1164.34 53.3837 1164.34 Q51.5088 1164.34 49.6338 1164.76 Q47.7819 1165.17 45.8375 1166.05 L45.8375 1148.69 Z" fill="#000000" fill-rule="evenodd" fill-opacity="1" /><path clip-path="url(#clip440)" d="M 0 0 M18.8237 862.133 L37.1801 862.133 L37.1801 866.069 L23.1061 866.069 L23.1061 874.541 Q24.1246 874.194 25.1432 874.032 Q26.1617 873.846 27.1802 873.846 Q32.9672 873.846 36.3468 877.018 Q39.7264 880.189 39.7264 885.606 Q39.7264 891.184 36.2542 894.286 Q32.782 897.365 26.4626 897.365 Q24.2867 897.365 22.0182 896.994 Q19.7728 896.624 17.3654 895.883 L17.3654 891.184 Q19.4487 892.318 21.671 892.874 Q23.8932 893.43 26.37 893.43 Q30.3746 893.43 32.7126 891.323 Q35.0505 889.217 35.0505 885.606 Q35.0505 881.994 32.7126 879.888 Q30.3746 877.782 26.37 877.782 Q24.495 877.782 22.62 878.198 Q20.7682 878.615 18.8237 879.494 L18.8237 862.133 Z" fill="#000000" fill-rule="evenodd" fill-opacity="1" /><path clip-path="url(#clip440)" d="M 0 0 M54.7958 865.212 Q51.1847 865.212 49.356 868.777 Q47.5504 872.319 47.5504 879.448 Q47.5504 886.555 49.356 890.119 Q51.1847 893.661 54.7958 893.661 Q58.43 893.661 60.2356 890.119 Q62.0643 886.555 62.0643 879.448 Q62.0643 872.319 60.2356 868.777 Q58.43 865.212 54.7958 865.212 M54.7958 861.508 Q60.6059 861.508 63.6615 866.115 Q66.7402 870.698 66.7402 879.448 Q66.7402 888.175 63.6615 892.781 Q60.6059 897.365 54.7958 897.365 Q48.9856 897.365 45.9069 892.781 Q42.8514 888.175 42.8514 879.448 Q42.8514 870.698 45.9069 866.115 Q48.9856 861.508 54.7958 861.508 Z" fill="#000000" fill-rule="evenodd" fill-opacity="1" /><path clip-path="url(#clip440)" d="M 0 0 M18.4997 575.574 L40.7218 575.574 L40.7218 577.564 L28.1755 610.134 L23.2913 610.134 L35.0968 579.509 L18.4997 579.509 L18.4997 575.574 Z" fill="#000000" fill-rule="evenodd" fill-opacity="1" /><path clip-path="url(#clip440)" d="M 0 0 M45.8375 575.574 L64.1939 575.574 L64.1939 579.509 L50.1199 579.509 L50.1199 587.981 Q51.1384 587.634 52.1569 587.472 Q53.1754 587.287 54.1939 587.287 Q59.9809 587.287 63.3605 590.458 Q66.7402 593.629 66.7402 599.046 Q66.7402 604.625 63.268 607.726 Q59.7958 610.805 53.4763 610.805 Q51.3004 610.805 49.0319 610.435 Q46.7866 610.064 44.3792 609.324 L44.3792 604.625 Q46.4625 605.759 48.6847 606.314 Q50.9069 606.87 53.3837 606.87 Q57.3884 606.87 59.7263 604.763 Q62.0643 602.657 62.0643 599.046 Q62.0643 595.435 59.7263 593.328 Q57.3884 591.222 53.3837 591.222 Q51.5088 591.222 49.6338 591.638 Q47.7819 592.055 45.8375 592.935 L45.8375 575.574 Z" fill="#000000" fill-rule="evenodd" fill-opacity="1" /><path clip-path="url(#clip440)" d="M 0 0 M-7.19463 319.639 L0.444216 319.639 L0.444216 293.273 L-7.86592 294.94 L-7.86592 290.681 L0.39792 289.014 L5.07382 289.014 L5.07382 319.639 L12.7127 319.639 L12.7127 323.574 L-7.19463 323.574 L-7.19463 319.639 Z" fill="#000000" fill-rule="evenodd" fill-opacity="1" /><path clip-path="url(#clip440)" d="M 0 0 M27.782 292.093 Q24.1709 292.093 22.3422 295.658 Q20.5367 299.199 20.5367 306.329 Q20.5367 313.435 22.3422 317 Q24.1709 320.542 27.782 320.542 Q31.4163 320.542 33.2218 317 Q35.0505 313.435 35.0505 306.329 Q35.0505 299.199 33.2218 295.658 Q31.4163 292.093 27.782 292.093 M27.782 288.389 Q33.5922 288.389 36.6477 292.996 Q39.7264 297.579 39.7264 306.329 Q39.7264 315.056 36.6477 319.662 Q33.5922 324.245 27.782 324.245 Q21.9719 324.245 18.8932 319.662 Q15.8377 315.056 15.8377 306.329 Q15.8377 297.579 18.8932 292.996 Q21.9719 288.389 27.782 288.389 Z" fill="#000000" fill-rule="evenodd" fill-opacity="1" /><path clip-path="url(#clip440)" d="M 0 0 M54.7958 292.093 Q51.1847 292.093 49.356 295.658 Q47.5504 299.199 47.5504 306.329 Q47.5504 313.435 49.356 317 Q51.1847 320.542 54.7958 320.542 Q58.43 320.542 60.2356 317 Q62.0643 313.435 62.0643 306.329 Q62.0643 299.199 60.2356 295.658 Q58.43 292.093 54.7958 292.093 M54.7958 288.389 Q60.6059 288.389 63.6615 292.996 Q66.7402 297.579 66.7402 306.329 Q66.7402 315.056 63.6615 319.662 Q60.6059 324.245 54.7958 324.245 Q48.9856 324.245 45.9069 319.662 Q42.8514 315.056 42.8514 306.329 Q42.8514 297.579 45.9069 292.996 Q48.9856 288.389 54.7958 288.389 Z" fill="#000000" fill-rule="evenodd" fill-opacity="1" /><path clip-path="url(#clip440)" d="M 0 0 M-30.8118 774.565 Q-24.4461 777.048 -22.5045 779.403 Q-20.563 781.758 -20.563 785.705 L-20.563 790.384 L-25.4646 790.384 L-25.4646 786.946 Q-25.4646 784.527 -26.6104 783.191 Q-27.7562 781.854 -32.0212 780.231 L-34.6948 779.18 L-69.7699 793.599 L-69.7699 787.392 L-41.8881 776.252 L-69.7699 765.112 L-69.7699 758.905 L-30.8118 774.565 Z" fill="#000000" fill-rule="evenodd" fill-opacity="1" /><polyline clip-path="url(#clip442)" style="stroke:#009af9; stroke-width:4; stroke-opacity:1; fill:none" points="
  166.42,1464 187.149,1461.65 378.823,1429.58 494.011,1401.31 591.401,1372.15 697.194,1335 794.726,1295.71 899.29,1248.21 1020.44,1186.22 1128.1,1124.86 
  1222.51,1066.2 1325.44,997.078 1428.99,922.107 1543.47,832.867 1652.39,741.767 1765.65,640.642 1860.99,550.457 1977.39,434.082 2086.8,318.4 2262.1,120.372 
  2289.08,88.5087 
  "/>
<path clip-path="url(#clip440)" d="
M1976.74 216.805 L2277.76 216.805 L2277.76 95.8446 L1976.74 95.8446  Z
  " fill="#ffffff" fill-rule="evenodd" fill-opacity="1"/>
<polyline clip-path="url(#clip440)" style="stroke:#000000; stroke-width:4; stroke-opacity:1; fill:none" points="
  1976.74,216.805 2277.76,216.805 2277.76,95.8446 1976.74,95.8446 1976.74,216.805 
  "/>
<polyline clip-path="url(#clip440)" style="stroke:#009af9; stroke-width:4; stroke-opacity:1; fill:none" points="
  2001.74,156.325 2151.74,156.325 
  "/>
<path clip-path="url(#clip440)" d="M 0 0 M2190.58 176.012 Q2188.77 180.642 2187.06 182.054 Q2185.35 183.466 2182.48 183.466 L2179.07 183.466 L2179.07 179.901 L2181.57 179.901 Q2183.33 179.901 2184.31 179.068 Q2185.28 178.234 2186.46 175.132 L2187.22 173.188 L2176.74 147.679 L2181.25 147.679 L2189.35 167.957 L2197.45 147.679 L2201.97 147.679 L2190.58 176.012 Z" fill="#000000" fill-rule="evenodd" fill-opacity="1" /><path clip-path="url(#clip440)" d="M 0 0 M2207.85 169.669 L2215.49 169.669 L2215.49 143.304 L2207.18 144.971 L2207.18 140.711 L2215.44 139.045 L2220.12 139.045 L2220.12 169.669 L2227.76 169.669 L2227.76 173.605 L2207.85 173.605 L2207.85 169.669 Z" fill="#000000" fill-rule="evenodd" fill-opacity="1" /></svg>
