<?xml version="1.0" encoding="utf-8"?>
<svg xmlns="http://www.w3.org/2000/svg" xmlns:xlink="http://www.w3.org/1999/xlink" width="600" height="400" viewBox="0 0 2400 1600">
<defs>
  <clipPath id="clip3000">
    <rect x="0" y="0" width="2400" height="1600"/>
  </clipPath>
</defs>
<path clip-path="url(#clip3000)" d="
M0 1600 L2400 1600 L2400 0 L0 0  Z
  " fill="#ffffff" fill-rule="evenodd" fill-opacity="1"/>
<defs>
  <clipPath id="clip3001">
    <rect x="480" y="0" width="1681" height="1600"/>
  </clipPath>
</defs>
<path clip-path="url(#clip3000)" d="
M229.135 1425.62 L2352.76 1425.62 L2352.76 47.2441 L229.135 47.2441  Z
  " fill="#ffffff" fill-rule="evenodd" fill-opacity="1"/>
<defs>
  <clipPath id="clip3002">
    <rect x="229" y="47" width="2125" height="1379"/>
  </clipPath>
</defs>
<polyline clip-path="url(#clip3002)" style="stroke:#000000; stroke-width:2; stroke-opacity:0.1; fill:none" points="
  289.238,1425.62 289.238,47.2441 
  "/>
<polyline clip-path="url(#clip3002)" style="stroke:#000000; stroke-width:2; stroke-opacity:0.1; fill:none" points="
  790.092,1425.62 790.092,47.2441 
  "/>
<polyline clip-path="url(#clip3002)" style="stroke:#000000; stroke-width:2; stroke-opacity:0.1; fill:none" points="
  1290.95,1425.62 1290.95,47.2441 
  "/>
<polyline clip-path="url(#clip3002)" style="stroke:#000000; stroke-width:2; stroke-opacity:0.1; fill:none" points="
  1791.8,1425.62 1791.8,47.2441 
  "/>
<polyline clip-path="url(#clip3002)" style="stroke:#000000; stroke-width:2; stroke-opacity:0.1; fill:none" points="
  2292.65,1425.62 2292.65,47.2441 
  "/>
<polyline clip-path="url(#clip3002)" style="stroke:#000000; stroke-width:2; stroke-opacity:0.1; fill:none" points="
  229.135,1375.77 2352.76,1375.77 
  "/>
<polyline clip-path="url(#clip3002)" style="stroke:#000000; stroke-width:2; stroke-opacity:0.1; fill:none" points="
  229.135,1104.86 2352.76,1104.86 
  "/>
<polyline clip-path="url(#clip3002)" style="stroke:#000000; stroke-width:2; stroke-opacity:0.1; fill:none" points="
  229.135,833.958 2352.76,833.958 
  "/>
<polyline clip-path="url(#clip3002)" style="stroke:#000000; stroke-width:2; stroke-opacity:0.1; fill:none" points="
  229.135,563.051 2352.76,563.051 
  "/>
<polyline clip-path="url(#clip3002)" style="stroke:#000000; stroke-width:2; stroke-opacity:0.1; fill:none" points="
  229.135,292.144 2352.76,292.144 
  "/>
<polyline clip-path="url(#clip3000)" style="stroke:#000000; stroke-width:4; stroke-opacity:1; fill:none" points="
  229.135,1425.62 2352.76,1425.62 
  "/>
<polyline clip-path="url(#clip3000)" style="stroke:#000000; stroke-width:4; stroke-opacity:1; fill:none" points="
  229.135,1425.62 229.135,47.2441 
  "/>
<polyline clip-path="url(#clip3000)" style="stroke:#000000; stroke-width:4; stroke-opacity:1; fill:none" points="
  289.238,1425.62 289.238,1409.08 
  "/>
<polyline clip-path="url(#clip3000)" style="stroke:#000000; stroke-width:4; stroke-opacity:1; fill:none" points="
  790.092,1425.62 790.092,1409.08 
  "/>
<polyline clip-path="url(#clip3000)" style="stroke:#000000; stroke-width:4; stroke-opacity:1; fill:none" points="
  1290.95,1425.62 1290.95,1409.08 
  "/>
<polyline clip-path="url(#clip3000)" style="stroke:#000000; stroke-width:4; stroke-opacity:1; fill:none" points="
  1791.8,1425.62 1791.8,1409.08 
  "/>
<polyline clip-path="url(#clip3000)" style="stroke:#000000; stroke-width:4; stroke-opacity:1; fill:none" points="
  2292.65,1425.62 2292.65,1409.08 
  "/>
<polyline clip-path="url(#clip3000)" style="stroke:#000000; stroke-width:4; stroke-opacity:1; fill:none" points="
  229.135,1375.77 254.619,1375.77 
  "/>
<polyline clip-path="url(#clip3000)" style="stroke:#000000; stroke-width:4; stroke-opacity:1; fill:none" points="
  229.135,1104.86 254.619,1104.86 
  "/>
<polyline clip-path="url(#clip3000)" style="stroke:#000000; stroke-width:4; stroke-opacity:1; fill:none" points="
  229.135,833.958 254.619,833.958 
  "/>
<polyline clip-path="url(#clip3000)" style="stroke:#000000; stroke-width:4; stroke-opacity:1; fill:none" points="
  229.135,563.051 254.619,563.051 
  "/>
<polyline clip-path="url(#clip3000)" style="stroke:#000000; stroke-width:4; stroke-opacity:1; fill:none" points="
  229.135,292.144 254.619,292.144 
  "/>
<g clip-path="url(#clip3000)">
<text style="fill:#000000; fill-opacity:1; font-family:Arial,Helvetica Neue,Helvetica,sans-serif; font-size:48px; text-anchor:middle;" transform="rotate(0, 289.238, 1479.62)" x="289.238" y="1479.62">0.0</text>
</g>
<g clip-path="url(#clip3000)">
<text style="fill:#000000; fill-opacity:1; font-family:Arial,Helvetica Neue,Helvetica,sans-serif; font-size:48px; text-anchor:middle;" transform="rotate(0, 790.092, 1479.62)" x="790.092" y="1479.62">2.5</text>
</g>
<g clip-path="url(#clip3000)">
<text style="fill:#000000; fill-opacity:1; font-family:Arial,Helvetica Neue,Helvetica,sans-serif; font-size:48px; text-anchor:middle;" transform="rotate(0, 1290.95, 1479.62)" x="1290.95" y="1479.62">5.0</text>
</g>
<g clip-path="url(#clip3000)">
<text style="fill:#000000; fill-opacity:1; font-family:Arial,Helvetica Neue,Helvetica,sans-serif; font-size:48px; text-anchor:middle;" transform="rotate(0, 1791.8, 1479.62)" x="1791.8" y="1479.62">7.5</text>
</g>
<g clip-path="url(#clip3000)">
<text style="fill:#000000; fill-opacity:1; font-family:Arial,Helvetica Neue,Helvetica,sans-serif; font-size:48px; text-anchor:middle;" transform="rotate(0, 2292.65, 1479.62)" x="2292.65" y="1479.62">10.0</text>
</g>
<g clip-path="url(#clip3000)">
<text style="fill:#000000; fill-opacity:1; font-family:Arial,Helvetica Neue,Helvetica,sans-serif; font-size:48px; text-anchor:end;" transform="rotate(0, 205.135, 1393.27)" x="205.135" y="1393.27">0</text>
</g>
<g clip-path="url(#clip3000)">
<text style="fill:#000000; fill-opacity:1; font-family:Arial,Helvetica Neue,Helvetica,sans-serif; font-size:48px; text-anchor:end;" transform="rotate(0, 205.135, 1122.36)" x="205.135" y="1122.36">25</text>
</g>
<g clip-path="url(#clip3000)">
<text style="fill:#000000; fill-opacity:1; font-family:Arial,Helvetica Neue,Helvetica,sans-serif; font-size:48px; text-anchor:end;" transform="rotate(0, 205.135, 851.458)" x="205.135" y="851.458">50</text>
</g>
<g clip-path="url(#clip3000)">
<text style="fill:#000000; fill-opacity:1; font-family:Arial,Helvetica Neue,Helvetica,sans-serif; font-size:48px; text-anchor:end;" transform="rotate(0, 205.135, 580.551)" x="205.135" y="580.551">75</text>
</g>
<g clip-path="url(#clip3000)">
<text style="fill:#000000; fill-opacity:1; font-family:Arial,Helvetica Neue,Helvetica,sans-serif; font-size:48px; text-anchor:end;" transform="rotate(0, 205.135, 309.644)" x="205.135" y="309.644">100</text>
</g>
<g clip-path="url(#clip3000)">
<text style="fill:#000000; fill-opacity:1; font-family:Arial,Helvetica Neue,Helvetica,sans-serif; font-size:66px; text-anchor:middle;" transform="rotate(0, 1290.95, 1559.48)" x="1290.95" y="1559.48">x</text>
</g>
<g clip-path="url(#clip3000)">
<text style="fill:#000000; fill-opacity:1; font-family:Arial,Helvetica Neue,Helvetica,sans-serif; font-size:66px; text-anchor:middle;" transform="rotate(-90, 89.2861, 736.431)" x="89.2861" y="736.431">y</text>
</g>
<polyline clip-path="url(#clip3002)" style="stroke:#009af9; stroke-width:4; stroke-opacity:1; fill:none" points="
  289.238,1386.61 308.803,1384.39 489.709,1354.07 598.427,1327.35 690.346,1299.78 790.196,1264.66 882.249,1227.51 980.939,1182.61 1095.28,1124 1196.9,1066 
  1286,1010.54 1383.15,945.195 1480.88,874.319 1588.93,789.954 1691.74,703.83 1798.63,608.229 1888.61,522.97 1998.47,412.952 2101.74,303.589 2267.19,116.378 
  2292.65,86.2547 
  "/>
<path clip-path="url(#clip3000)" d="
M1989.93 251.724 L2280.76 251.724 L2280.76 130.764 L1989.93 130.764  Z
  " fill="#ffffff" fill-rule="evenodd" fill-opacity="1"/>
<polyline clip-path="url(#clip3000)" style="stroke:#000000; stroke-width:4; stroke-opacity:1; fill:none" points="
  1989.93,251.724 2280.76,251.724 2280.76,130.764 1989.93,130.764 1989.93,251.724 
  "/>
<polyline clip-path="url(#clip3000)" style="stroke:#009af9; stroke-width:4; stroke-opacity:1; fill:none" points="
  2013.93,191.244 2157.93,191.244 
  "/>
<g clip-path="url(#clip3000)">
<text style="fill:#000000; fill-opacity:1; font-family:Arial,Helvetica Neue,Helvetica,sans-serif; font-size:48px; text-anchor:start;" transform="rotate(0, 2181.93, 208.744)" x="2181.93" y="208.744">y1</text>
</g>
</svg>
